<?xml version="1.0" encoding="UTF-8"?>
<!DOCTYPE svg PUBLIC "-//W3C//DTD SVG 1.1//EN" "http://www.w3.org/Graphics/SVG/1.1/DTD/svg11.dtd">
<svg version="1.1" xmlns="http://www.w3.org/2000/svg" xmlns:xlink="http://www.w3.org/1999/xlink" x="0" y="0" width="290" height="179" viewBox="0, 0, 290, 179">
  
  
  <g id="Background">
    <rect x="0" y="0" width="290" height="179" fill="#fdf0f0"/>
  </g>
  <g id="Layer_1">
    <text y="40" transform="translate(145)">
      <tspan text-anchor="middle" x="0" font-family="Times New Roman" font-size="22" fill="#a54946">unscramble</tspan>
      <tspan text-anchor="middle" x="0" dy="1em" font-family="Times New Roman" font-size="25" fill="#a54946">nsyun</tspan>
    </text>
    <path d="M12.5,84.864 L278.5,84.864" fill-opacity="0" stroke="#a54946" stroke-width="1"/>
    <g>
      <path d="M142.933,90.286 C140.172,90.286 137.933,88.047 137.933,85.286 C137.933,82.525 140.172,80.286 142.933,80.286 C145.695,80.286 147.933,82.525 147.933,85.286 C147.933,88.047 145.695,90.286 142.933,90.286 z" fill="#a54946"/>
      <path d="M142.933,90.286 C140.172,90.286 137.933,88.047 137.933,85.286 C137.933,82.525 140.172,80.286 142.933,80.286 C145.695,80.286 147.933,82.525 147.933,85.286 C147.933,88.047 145.695,90.286 142.933,90.286 z" fill-opacity="0" stroke="#fdf0f0" stroke-width="5"/>
    </g>
    <text y="110" transform="translate(145)">
      
      
      <tspan text-anchor="middle" x="0" font-family="Times New Roman" font-size="12" fill="#a54946">with word unscrambler to find a word that means </tspan>
      
      <tspan text-anchor="middle" x="0" dy="1em" font-family="Times New Roman" font-style="italic" font-size="13" fill="#a54946">bright and pleasant; promoting a feeling of</tspan>
      
      <tspan text-anchor="middle" x="0" dy="1em" font-family="Times New Roman" font-style="italic" font-size="13" fill="#a54946">cheer</tspan>
      
    </text>
  </g>
</svg>